<svg xmlns="http://www.w3.org/2000/svg" xmlns:xlink="http://www.w3.org/1999/xlink" width="500" zoomAndPan="magnify" viewBox="0 0 375 374.999991" height="500" preserveAspectRatio="xMidYMid meet" version="1.0"><defs><clipPath id="839b84ff1f"><path d="M 33.484375 61 L 341.515625 61 L 341.515625 314.609375 L 33.484375 314.609375 Z M 33.484375 61 " clip-rule="nonzero"/></clipPath><clipPath id="6b523a86e2"><path d="M 130 138 L 266 138 L 266 274 L 130 274 Z M 130 138 " clip-rule="nonzero"/></clipPath><clipPath id="4003ec926b"><path d="M 231.835938 138.386719 L 265.597656 172.148438 L 164.316406 273.425781 L 130.554688 239.667969 Z M 231.835938 138.386719 " clip-rule="nonzero"/></clipPath><clipPath id="11471b6dd8"><path d="M 94 142 L 230 142 L 230 279 L 94 279 Z M 94 142 " clip-rule="nonzero"/></clipPath><clipPath id="7e4f34db6c"><path d="M 94.9375 176.757812 L 128.699219 142.996094 L 229.980469 244.277344 L 196.21875 278.039062 Z M 94.9375 176.757812 " clip-rule="nonzero"/></clipPath></defs><g clip-path="url(#839b84ff1f)"><path fill="#000000" d="M 123.722656 311.042969 L 172.191406 262.578125 C 174.671875 260.09375 178.707031 260.097656 181.183594 262.578125 L 223.890625 305.285156 C 228.492188 309.882812 235.980469 309.882812 240.582031 305.285156 L 255.425781 290.4375 C 257.65625 288.207031 258.882812 285.242188 258.882812 282.089844 C 258.882812 278.9375 257.65625 275.976562 255.425781 273.742188 L 185.035156 203.351562 C 180.433594 198.75 172.945312 198.75 168.34375 203.351562 L 92.1875 279.507812 C 87.585938 284.109375 87.585938 291.597656 92.1875 296.203125 L 107.027344 311.042969 C 109.332031 313.347656 112.351562 314.496094 115.375 314.496094 C 118.398438 314.496094 121.421875 313.347656 123.722656 311.042969 Z M 323.210938 278.035156 L 338.058594 263.191406 C 340.289062 260.960938 341.515625 257.996094 341.515625 254.84375 C 341.515625 251.691406 340.289062 248.726562 338.058594 246.496094 L 239.972656 148.414062 C 235.371094 143.8125 227.882812 143.8125 223.28125 148.414062 L 208.4375 163.257812 C 203.835938 167.859375 203.835938 175.347656 208.4375 179.949219 L 306.523438 278.035156 C 308.820312 280.335938 311.84375 281.484375 314.867188 281.484375 C 317.886719 281.484375 320.910156 280.335938 323.210938 278.035156 Z M 60.136719 259.261719 C 56.984375 259.261719 54.019531 258.035156 51.789062 255.804688 L 36.945312 240.960938 C 34.714844 238.730469 33.488281 235.765625 33.488281 232.613281 C 33.488281 229.460938 34.714844 226.5 36.945312 224.269531 L 196.113281 65.097656 C 200.714844 60.496094 208.207031 60.496094 212.808594 65.097656 L 227.652344 79.945312 C 232.253906 84.546875 232.253906 92.035156 227.652344 96.636719 L 68.484375 255.804688 C 66.253906 258.035156 63.289062 259.261719 60.136719 259.261719 " fill-opacity="1" fill-rule="nonzero"/></g><g clip-path="url(#6b523a86e2)"><g clip-path="url(#4003ec926b)"><path fill="#000000" d="M 94.144531 66.042969 L 141.644531 113.542969 C 144.078125 115.972656 144.074219 119.929688 141.644531 122.359375 L 99.789062 164.214844 C 95.28125 168.722656 95.28125 176.0625 99.789062 180.570312 L 114.339844 195.121094 C 116.523438 197.308594 119.429688 198.507812 122.523438 198.507812 C 125.613281 198.507812 128.515625 197.308594 130.703125 195.121094 L 199.691406 126.128906 C 204.199219 121.621094 204.199219 114.28125 199.691406 109.773438 L 125.050781 35.132812 C 120.539062 30.621094 113.203125 30.621094 108.691406 35.132812 L 94.144531 49.679688 C 91.886719 51.9375 90.761719 54.898438 90.761719 57.859375 C 90.761719 60.824219 91.886719 63.785156 94.144531 66.042969 Z M 126.496094 261.554688 L 141.042969 276.105469 C 143.230469 278.292969 146.136719 279.492188 149.222656 279.492188 C 152.3125 279.492188 155.222656 278.292969 157.40625 276.105469 L 253.535156 179.976562 C 258.046875 175.464844 258.046875 168.128906 253.535156 163.613281 L 238.984375 149.066406 C 234.476562 144.558594 227.136719 144.558594 222.628906 149.066406 L 126.496094 245.199219 C 124.242188 247.453125 123.113281 250.414062 123.113281 253.378906 C 123.113281 256.339844 124.242188 259.300781 126.496094 261.554688 Z M 144.894531 3.722656 C 144.894531 0.632812 146.097656 -2.273438 148.28125 -4.457031 L 162.832031 -19.007812 C 165.019531 -21.191406 167.921875 -22.394531 171.011719 -22.394531 C 174.101562 -22.394531 177.003906 -21.191406 179.191406 -19.007812 L 335.191406 136.992188 C 339.699219 141.5 339.699219 148.839844 335.191406 153.355469 L 320.640625 167.898438 C 316.128906 172.410156 308.789062 172.410156 304.28125 167.898438 L 148.28125 11.902344 C 146.097656 9.714844 144.894531 6.8125 144.894531 3.722656 " fill-opacity="1" fill-rule="nonzero"/></g></g><g clip-path="url(#11471b6dd8)"><g clip-path="url(#7e4f34db6c)"><path fill="#000000" d="M 22.59375 314.449219 L 70.097656 266.949219 C 72.527344 264.515625 76.484375 264.519531 78.910156 266.949219 L 120.765625 308.804688 C 125.277344 313.3125 132.617188 313.3125 137.125 308.804688 L 151.675781 294.253906 C 153.859375 292.070312 155.0625 289.164062 155.0625 286.074219 C 155.0625 282.980469 153.859375 280.078125 151.675781 277.894531 L 82.683594 208.902344 C 78.175781 204.394531 70.835938 204.394531 66.324219 208.902344 L -8.3125 283.542969 C -12.824219 288.054688 -12.824219 295.390625 -8.3125 299.902344 L 6.234375 314.449219 C 8.488281 316.707031 11.453125 317.832031 14.414062 317.832031 C 17.375 317.832031 20.339844 316.707031 22.59375 314.449219 Z M 218.109375 282.097656 L 232.660156 267.550781 C 234.84375 265.363281 236.046875 262.457031 236.046875 259.371094 C 236.046875 256.28125 234.84375 253.371094 232.660156 251.1875 L 136.53125 155.058594 C 132.019531 150.546875 124.679688 150.546875 120.167969 155.058594 L 105.621094 169.609375 C 101.109375 174.117188 101.109375 181.457031 105.621094 185.96875 L 201.75 282.097656 C 204.007812 284.351562 206.964844 285.480469 209.929688 285.480469 C 212.890625 285.480469 215.855469 284.351562 218.109375 282.097656 Z M -39.726562 263.699219 C -42.816406 263.699219 -45.71875 262.496094 -47.90625 260.3125 L -62.453125 245.761719 C -64.640625 243.578125 -65.839844 240.671875 -65.839844 237.582031 C -65.839844 234.492188 -64.640625 231.589844 -62.453125 229.402344 L 93.542969 73.40625 C 98.054688 68.894531 105.394531 68.894531 109.90625 73.40625 L 124.453125 87.953125 C 128.964844 92.464844 128.964844 99.804688 124.453125 104.3125 L -31.546875 260.3125 C -33.730469 262.496094 -36.636719 263.699219 -39.726562 263.699219 " fill-opacity="1" fill-rule="nonzero"/></g></g></svg>